<svg xmlns="http://www.w3.org/2000/svg" viewBox="0 0 125.9 16.1"><linearGradient id="a" gradientUnits="userSpaceOnUse" x1="-8.125" y1="1311.05" x2="111.751" y2="1311.05" gradientTransform="translate(0 -1303)"><stop offset="0" stop-color="#115bc4"/><stop offset="1" stop-color="#05bdfd"/></linearGradient><path d="M15.2 5.5l-4.5-.7-2-4.3C8.6.2 8.3 0 7.9 0c-.3 0-.6.2-.8.5l-2 4.3-4.4.7c-.3 0-.6.3-.7.6-.1.3 0 .7.2.9l3.3 3.3-.8 4.7c-.1.3.1.7.3.9.3.2.6.2.9.1l4-2.2 4 2.2c.1.1.3.1.4.1.2 0 .4-.1.5-.2.3-.2.4-.5.3-.9l-.8-4.7L15.6 7c.2-.2.3-.6.2-.9 0-.4-.3-.6-.6-.6z" fill="url(#a)"/><linearGradient id="b" gradientUnits="userSpaceOnUse" x1="-8.125" y1="10" x2="111.751" y2="10"><stop offset="0" stop-color="#115bc4"/><stop offset="1" stop-color="#05bdfd"/></linearGradient><path d="M24 7.7c0-.9.4-1.7 1.2-2.4.8-.6 1.8-1 3.1-1s2.3.3 3 1c.8.6 1.2 1.5 1.2 2.6h-2.3c0-.5-.2-1-.6-1.3-.3-.3-.8-.5-1.4-.5s-1.1.1-1.4.4-.5.6-.5 1.1c0 .4.2.8.7 1 .4.3 1 .4 1.6.6.6.1 1.3.3 1.9.4.6.2 1.2.5 1.6 1 .4.5.7 1.1.7 1.9 0 1-.4 1.7-1.2 2.3s-1.8.9-3.1.9-2.3-.3-3.1-.9c-.8-.6-1.2-1.5-1.3-2.6h2.4c0 .5.2 1 .6 1.3s.8.5 1.5.5 1.1-.1 1.5-.4c.4-.3.6-.6.6-1.1s-.2-.8-.7-1.1c-.4-.3-1-.4-1.6-.6-.6-.1-1.3-.3-1.9-.4-.6-.2-1.2-.5-1.6-.9-.7-.5-.9-1.1-.9-1.8z" fill="url(#b)"/><linearGradient id="c" gradientUnits="userSpaceOnUse" x1="-8.125" y1="8.7" x2="111.751" y2="8.7"><stop offset="0" stop-color="#115bc4"/><stop offset="1" stop-color="#05bdfd"/></linearGradient><path d="M40.5 6.4h-2.7v6.1c0 .4.1.7.3.9s.5.3 1 .3h1.4v1.9h-1.8c-2.1 0-3.2-1-3.2-3.1V6.4h-1.3V4.5h1.3V1.8h2.3v2.7h2.7v1.9z" fill="url(#c)"/><linearGradient id="d" gradientUnits="userSpaceOnUse" x1="-8.125" y1="10" x2="111.751" y2="10"><stop offset="0" stop-color="#115bc4"/><stop offset="1" stop-color="#05bdfd"/></linearGradient><path d="M43.4 14.1c-1-1.1-1.5-2.4-1.5-4.1s.5-3 1.5-4.1c1-1 2.2-1.6 3.7-1.6.9 0 1.6.2 2.3.6s1.2.9 1.5 1.5v-2h2.3v11h-2.3v-1.9c-.4.7-.9 1.2-1.5 1.6-.7.4-1.4.6-2.3.6-1.5 0-2.7-.5-3.7-1.6zm6.5-1.4c.7-.7 1-1.6 1-2.7s-.3-2-1-2.7-1.4-1-2.3-1-1.7.3-2.3 1-1 1.5-1 2.7c0 1.1.3 2 1 2.7s1.4 1 2.3 1c.8.1 1.6-.3 2.3-1z" fill="url(#d)"/><linearGradient id="e" gradientUnits="userSpaceOnUse" x1="-8.125" y1="10.05" x2="111.751" y2="10.05"><stop offset="0" stop-color="#115bc4"/><stop offset="1" stop-color="#05bdfd"/></linearGradient><path d="M58.5 4.5v2c.7-1.4 1.8-2.1 3.3-2.1v2.4h-.6c-.9 0-1.6.2-2 .7s-.7 1.2-.7 2.4v5.8h-2.3V4.5h2.3z" fill="url(#e)"/><linearGradient id="f" gradientUnits="userSpaceOnUse" x1="-8.125" y1="8.65" x2="111.751" y2="8.65"><stop offset="0" stop-color="#115bc4"/><stop offset="1" stop-color="#05bdfd"/></linearGradient><path d="M73.4 15.6l-1.1-3h-6.2l-1.1 3h-1.9l5-13.9h2l5 13.9h-1.7zm-6.7-4.5h5.1l-2.6-7.2-2.5 7.2z" fill="url(#f)"/><linearGradient id="g" gradientUnits="userSpaceOnUse" x1="-8.125" y1="8.25" x2="111.751" y2="8.25"><stop offset="0" stop-color="#115bc4"/><stop offset="1" stop-color="#05bdfd"/></linearGradient><path d="M78.5 14.1C77.5 13 77 11.7 77 10s.5-3 1.5-4.1c1-1 2.2-1.6 3.8-1.6.9 0 1.8.2 2.5.7s1.2 1 1.6 1.7v-6h1.8v14.8h-1.8v-2.2c-.4.7-.9 1.3-1.6 1.8-.7.4-1.5.7-2.5.7-1.6-.1-2.8-.6-3.8-1.7zm6.6-1c.7-.7 1.1-1.7 1.1-3 0-1.2-.4-2.2-1.1-3-.7-.7-1.6-1.1-2.6-1.1s-1.9.4-2.6 1.1-1.1 1.7-1.1 2.9.4 2.2 1.1 3 1.6 1.2 2.6 1.2c1.1 0 1.9-.4 2.6-1.1z" fill="url(#g)"/><linearGradient id="h" gradientUnits="userSpaceOnUse" x1="-8.125" y1="10.05" x2="111.751" y2="10.05"><stop offset="0" stop-color="#115bc4"/><stop offset="1" stop-color="#05bdfd"/></linearGradient><path d="M92.9 4.6v1.8c.7-1.3 1.9-2 3.6-2 .8 0 1.6.2 2.3.6.7.4 1.2 1 1.5 1.8.4-.7.9-1.3 1.6-1.7.7-.4 1.5-.6 2.4-.6 1.2 0 2.3.4 3.1 1.2.8.8 1.2 2 1.2 3.5v6.5h-1.8V9.5c0-1.1-.3-1.9-.8-2.5s-1.3-.9-2.2-.9-1.7.3-2.2.9-.8 1.4-.8 2.5v6.2H99V9.5c0-1.1-.3-1.9-.8-2.5s-1.3-.9-2.2-.9-1.7.3-2.2.9-.8 1.4-.8 2.5v6.2h-1.8v-11l1.7-.1z" fill="url(#h)"/><linearGradient id="i" gradientUnits="userSpaceOnUse" x1="-8.125" y1="7.95" x2="111.751" y2="7.95"><stop offset="0" stop-color="#115bc4"/><stop offset="1" stop-color="#05bdfd"/></linearGradient><path d="M113.3 2.5c-.2.2-.5.4-.9.4s-.6-.1-.9-.4c-.2-.2-.3-.5-.3-.9s.1-.6.4-.9c.2-.2.5-.4.9-.4s.6.1.9.4c.2.2.4.5.4.9s-.3.6-.5.9zm-1.8 13.1v-11h1.8v11h-1.8z" fill="url(#i)"/><linearGradient id="j" gradientUnits="userSpaceOnUse" x1="-8.125" y1="10" x2="111.751" y2="10"><stop offset="0" stop-color="#115bc4"/><stop offset="1" stop-color="#05bdfd"/></linearGradient><path d="M118.1 4.6v1.8c.7-1.3 1.9-2 3.6-2 1.2 0 2.2.4 3 1.2s1.2 2 1.2 3.5v6.5h-1.8V9.4c0-1.1-.3-1.9-.8-2.5S122 6 121.1 6s-1.7.3-2.2.9-.8 1.4-.8 2.5v6.2h-1.8v-11h1.8z" fill="url(#j)"/></svg>