<svg id="Layer_1" xmlns="http://www.w3.org/2000/svg" viewBox="0 0 582 329"><style>.st0{fill:#fff}</style><path class="st0" d="M434.4 87.7c-1.5 0-2.9.2-4.2.6-3.6-6.2-10.4-10.4-18.1-10.4-.4 0-.7 0-1.1.1-5.8-10.6-17-17.9-29.9-17.9-12.5 0-23.4 6.7-29.3 16.7h-.9c-13.2 0-23.9 10.7-23.9 23.9s10.7 23.9 23.9 23.9c3.8 0 7.5-.9 10.7-2.5 5.5 3.9 12.3 6.2 19.6 6.2 9.3 0 17.7-3.7 23.8-9.7 2.3.8 4.7 1.3 7.3 1.3 5.7 0 10.9-2.3 14.7-6 2.2 1.4 4.8 2.2 7.6 2.2 7.8 0 14.2-6.3 14.2-14.2s-6.6-14.2-14.4-14.2z"/><path d="M242.6 196.5c-16.4-9.7-36.7-9.9-53.3-.6l-40 22.5-48 23.3L0 285.5.4 329h484.1l32.5-1.4-151.3-69.7-123.1-61.4z" opacity=".2" fill="#02b2f8"/><path d="M97 227.7c-11.3-6.7-25.3-6.8-36.7-.4L12 254.5.4 260.1v68.7h303.8l-75.8-34.9L97 227.7z" opacity=".2" fill="#49ddff"/><path d="M514.5 228.9a45.32 45.32 0 0 0-45.2.5l-127.2 63.7-77.5 35.8H582V264l-67.5-35.1z" opacity=".2" fill="#0080cf"/><path class="st0" d="M489.2 136c-.4 0-.8 0-1.2.1-1.2-4.8-5.5-8.3-10.6-8.3-3.9 0-7.3 2.1-9.2 5.1-.7-.2-1.5-.3-2.3-.3-4.2 0-7.6 3.4-7.6 7.6 0 4.2 3.4 7.6 7.6 7.6 1.5 0 2.9-.4 4.1-1.2 1.9 1.8 4.6 2.9 7.4 2.9 3 0 5.8-1.2 7.7-3.2 1.1 1 2.5 1.6 4.1 1.6 3.3 0 6-2.7 6-6 0-3.2-2.7-5.9-6-5.9zm61.9-40.8c-.6 0-1.1.1-1.6.2-1.5-6.3-7.2-10.9-13.9-10.9-5.1 0-9.6 2.7-12.2 6.8-.9-.3-1.9-.4-3-.4-5.5 0-10 4.5-10 10s4.5 10 10 10c2 0 3.8-.6 5.3-1.6 2.6 2.4 6 3.9 9.8 3.9 4 0 7.6-1.6 10.2-4.3 1.4 1.3 3.3 2.1 5.3 2.1 4.4 0 7.9-3.5 7.9-7.9.1-4.4-3.4-7.9-7.8-7.9z"/></svg>